<svg width="20" height="17" viewBox="0 0 20 17" fill="none" xmlns="http://www.w3.org/2000/svg">
<path d="M18 0H2C0.9 0 0.00999999 0.95625 0.00999999 2.125L0 14.875C0 16.0438 0.9 17 2 17H18C19.1 17 20 16.0438 20 14.875V2.125C20 0.95625 19.1 0 18 0ZM17.6 4.51562L10.53 9.21187C10.21 9.42438 9.79 9.42438 9.47 9.21187L2.4 4.51562C2.29973 4.45582 2.21192 4.37502 2.14189 4.27811C2.07186 4.1812 2.02106 4.0702 1.99258 3.95183C1.96409 3.83346 1.9585 3.71018 1.97616 3.58945C1.99381 3.46872 2.03434 3.35305 2.09528 3.24944C2.15623 3.14584 2.23632 3.05645 2.33073 2.98668C2.42513 2.91692 2.53187 2.86823 2.6445 2.84357C2.75712 2.8189 2.87328 2.81878 2.98595 2.84319C3.09863 2.86761 3.20546 2.91607 3.3 2.98563L10 7.4375L16.7 2.98563C16.7945 2.91607 16.9014 2.86761 17.014 2.84319C17.1267 2.81878 17.2429 2.8189 17.3555 2.84357C17.4681 2.86823 17.5749 2.91692 17.6693 2.98668C17.7637 3.05645 17.8438 3.14584 17.9047 3.24944C17.9657 3.35305 18.0062 3.46872 18.0238 3.58945C18.0415 3.71018 18.0359 3.83346 18.0074 3.95183C17.9789 4.0702 17.9281 4.1812 17.8581 4.27811C17.7881 4.37502 17.7003 4.45582 17.6 4.51562Z" fill="black"/>
</svg>
