<svg width="12" height="20" viewBox="0 0 12 20" fill="none" xmlns="http://www.w3.org/2000/svg">
<path d="M0 2.5C0 1.83696 0.252856 1.20107 0.702944 0.732233C1.15303 0.263392 1.76348 0 2.4 0L9.6 0C10.2365 0 10.847 0.263392 11.2971 0.732233C11.7471 1.20107 12 1.83696 12 2.5V17.5C12 18.163 11.7471 18.7989 11.2971 19.2678C10.847 19.7366 10.2365 20 9.6 20H2.4C1.76348 20 1.15303 19.7366 0.702944 19.2678C0.252856 18.7989 0 18.163 0 17.5V2.5ZM7.2 16.25C7.2 15.9185 7.07357 15.6005 6.84853 15.3661C6.62348 15.1317 6.31826 15 6 15C5.68174 15 5.37652 15.1317 5.15147 15.3661C4.92643 15.6005 4.8 15.9185 4.8 16.25C4.8 16.5815 4.92643 16.8995 5.15147 17.1339C5.37652 17.3683 5.68174 17.5 6 17.5C6.31826 17.5 6.62348 17.3683 6.84853 17.1339C7.07357 16.8995 7.2 16.5815 7.2 16.25Z" fill="black"/>
</svg>
