<svg width="32" height="32" viewBox="0 0 32 32" fill="none" xmlns="http://www.w3.org/2000/svg">
<path d="M4.90419 14.0535C4.6911 14.2692 4.57242 14.5606 4.57424 14.8638C4.57606 15.167 4.69824 15.457 4.9139 15.6701C5.12956 15.8832 5.42103 16.0018 5.7242 16C6.02736 15.9982 6.31739 15.876 6.53047 15.6604L14.8608 7.23065V27.4307C14.8608 27.7338 14.9812 28.0245 15.1955 28.2388C15.4098 28.4531 15.7005 28.5735 16.0036 28.5735C16.3067 28.5735 16.5974 28.4531 16.8117 28.2388C17.0261 28.0245 17.1465 27.7338 17.1465 27.4307V7.23294L25.4733 15.6604C25.6875 15.8703 25.9755 15.9877 26.2754 15.9872C26.5754 15.9867 26.863 15.8683 27.0764 15.6576C27.2899 15.4469 27.4119 15.1607 27.4162 14.8609C27.4206 14.561 27.3068 14.2714 27.0996 14.0547L17.0185 3.85008C16.8856 3.71567 16.7274 3.60895 16.553 3.53612C16.3786 3.46328 16.1915 3.42578 16.0025 3.42578C15.8135 3.42578 15.6264 3.46328 15.452 3.53612C15.2775 3.60895 15.1193 3.71567 14.9865 3.85008L4.90419 14.0547V14.0535Z" fill="white"/>
</svg>
